# xmcd
#
# Track frame offsets:
#	200
#	19292
#	40587
#
# Disc length: 798 seconds
#
# Revision: 1
# Processed by: cddbd v1.5.1PL0 Copyright (c) Steve Scherf et al.
# Submitted via: EasyCDDAExtractor 7.1.2.1
#
DISCID=1a031c03
DTITLE=Massive Attack - Daydreaming [Single]
DYEAR=1990
DGENRE=Pop
TTITLE0=Daydreaming
TTITLE1=Daydreaming [Instrumental]
TTITLE2=Any Love (2) With Tony Bryan
EXTD=YEAR: 1993
EXTT0=
EXTT1=
EXTT2=
PLAYORDER=
